<?xml version="1.0" standalone="no"?>
<!DOCTYPE svg PUBLIC "-//W3C//DTD SVG 20010904//EN"
 "http://www.w3.org/TR/2001/REC-SVG-20010904/DTD/svg10.dtd">
<svg version="1.0" xmlns="http://www.w3.org/2000/svg"
 width="749.000000pt" height="357.000000pt" viewBox="0 0 749.000000 357.000000"
 preserveAspectRatio="xMidYMid meet">
<metadata>
Created by potrace 1.15, written by Peter Selinger 2001-2017
</metadata>
<g transform="translate(0.000000,357.000000) scale(0.100000,-0.100000)"
fill="#000000" stroke="none">
<path d="M1330 1883 c-17 -39 -30 -82 -36 -122 -9 -63 -26 -82 -114 -128 -47
-25 -103 -55 -126 -68 -57 -33 -149 -126 -195 -198 -21 -33 -47 -66 -57 -72
-24 -17 -201 -93 -235 -101 -15 -3 -30 -11 -34 -17 -4 -6 1 -8 14 -5 12 3 20
0 20 -8 0 -19 -27 -26 -46 -12 -13 10 -14 10 -4 -1 6 -7 9 -20 6 -28 -4 -9 6
-7 31 8 20 11 33 25 30 30 -3 5 1 7 8 4 7 -3 20 0 28 5 12 8 13 12 2 19 -11 7
-11 9 2 14 9 4 15 1 13 -6 -3 -19 17 -11 93 38 38 25 70 42 70 39 0 -3 25 19
56 51 68 69 166 134 323 214 177 90 165 73 166 235 0 75 0 136 -1 136 0 0 -7
-12 -14 -27z"/>
<path d="M1105 1220 c-4 -6 -19 -9 -34 -8 -16 1 -41 -8 -62 -24 -19 -15 -79
-50 -134 -78 -55 -28 -113 -64 -130 -79 -16 -16 -91 -73 -165 -126 -382 -278
-413 -305 -458 -403 -19 -41 -40 -118 -56 -197 -13 -72 -28 -139 -31 -150 -7
-20 -7 -20 8 0 21 29 64 132 108 265 50 147 72 170 328 342 113 77 228 163
277 209 46 44 88 79 93 79 5 0 48 16 96 36 65 28 85 40 80 52 -4 11 -2 12 7 5
9 -7 22 -5 41 7 17 11 24 20 18 24 -14 9 -14 26 0 26 5 0 8 -4 5 -9 -3 -5 1
-11 9 -14 9 -4 12 -1 8 9 -5 13 8 19 31 15 5 -1 4 5 -4 13 -14 18 -26 20 -35
6z"/>
<path d="M3798 865 c-6 -6 23 -81 91 -237 11 -26 17 -47 13 -47 -4 1 -73 1
-154 0 -124 -1 -148 -3 -148 -16 0 -13 26 -15 170 -15 94 0 170 4 170 8 0 10
-100 245 -121 285 -8 15 -18 25 -21 22z"/>
<path d="M5287 864 c-4 -8 17 -63 98 -252 l14 -33 -154 3 c-142 3 -155 2 -155
-14 0 -16 15 -18 170 -18 94 0 170 3 170 8 0 10 -92 229 -117 276 -11 21 -23
35 -26 30z"/>
<path d="M6015 860 c-21 -34 -16 -310 6 -310 5 0 9 62 9 140 l0 141 142 -3
143 -3 -4 -82 c-3 -93 7 -193 20 -193 13 0 11 307 -1 315 -5 3 -10 1 -10 -4 0
-16 -287 -15 -292 1 -3 9 -7 8 -13 -2z"/>
<path d="M6507 863 c-14 -22 -10 -119 8 -179 32 -109 127 -160 252 -135 109
22 153 85 161 229 3 57 1 82 -7 82 -6 0 -11 -17 -11 -41 0 -22 -4 -38 -8 -35
-4 2 -6 -11 -4 -29 8 -67 -31 -140 -90 -171 -43 -22 -156 -18 -198 7 -61 37
-76 73 -88 207 -4 43 -11 72 -15 65z"/>
<path d="M7243 854 c7 -33 180 -304 194 -304 10 0 13 35 13 154 0 85 -4 157
-9 161 -12 7 -23 -102 -19 -187 2 -38 0 -68 -3 -68 -3 0 -34 47 -69 104 -71
118 -114 174 -107 140z"/>
</g>
</svg>
